<svg width="347" height="90" viewBox="0 0 185 43" fill="none" xmlns="http://www.w3.org/2000/svg">
<path fill-rule="evenodd" clip-rule="evenodd" d="M124.895 8.08914H131.647V6.26514H135.455V8.08914H142.815V6.26514H146.655V8.08914H153.567V11.3211H146.655V13.4011H142.815V11.3211H135.455V13.4011H131.647V11.3211H124.895V8.08914ZM136.415 20.5691V22.2011H141.887V20.5691H136.415ZM136.415 16.6011V18.2331H141.887V16.6011H136.415ZM133.023 14.1371H136.689C136.982 13.3431 137.263 12.4817 137.439 11.8011L141.215 12.3451C140.896 12.9831 140.591 13.585 140.312 14.1371H145.439V20.8468L147.135 19.0011C149.119 20.0891 152.031 21.7531 153.439 22.8731L151.167 25.4971C149.925 24.4328 147.427 22.8222 145.439 21.6495V24.6971H141.023V26.1051H153.439V29.3371H144.131C146.768 31.0354 150.472 32.3238 154.175 32.9531C153.407 33.6571 152.415 35.0651 151.935 35.9611C147.847 35.0037 143.905 33.1048 141.023 30.5689V36.2811H137.215V30.4888C134.322 33.0038 130.366 35.0338 126.431 36.1211C125.951 35.1931 124.895 33.8491 124.127 33.1131C127.544 32.3876 131.063 31.0288 133.684 29.3371H124.895V26.1051H137.215V24.6971H133.023V14.1371ZM149.631 12.9531L152.927 14.5211C151.647 16.1851 150.047 17.8171 148.799 18.9051L145.823 17.4651C147.071 16.2811 148.703 14.3611 149.631 12.9531ZM125.375 14.9691L128.159 13.0491C129.631 14.2331 131.359 15.9931 132.095 17.2731L129.119 19.3851C128.479 18.1051 126.815 16.2491 125.375 14.9691ZM129.507 20.3258L129.511 20.324L129.514 20.3229C130.354 19.9735 131.223 19.6121 132.095 19.2571L132.895 22.2651C131.407 23.009 129.849 23.7528 128.389 24.4498L128.388 24.4503L128.387 24.4507C127.649 24.8029 126.937 25.143 126.271 25.4651L124.735 22.2331C126.023 21.7747 127.699 21.0778 129.507 20.3258ZM163.423 7.73714H182.527V16.9531H163.411C163.398 17.6078 163.376 18.2931 163.341 19.0011H180.991H182.239H184.863C184.863 19.0011 184.863 20.0891 184.831 20.5691C184.479 29.8811 184.159 33.5291 183.199 34.7451C182.495 35.6731 181.759 35.9931 180.735 36.1531C179.807 36.2811 178.335 36.3131 176.735 36.2491C176.681 35.3284 176.375 34.0869 175.933 33.1451H168.351V35.0651H164.831V24.2171H166.847H168.351H177.503V32.7662C178.014 32.7854 178.436 32.7931 178.719 32.7931C179.231 32.7931 179.519 32.6971 179.807 32.3131C180.348 31.6585 180.686 29.0543 180.912 22.3611H163.079C162.582 26.9473 161.424 31.9144 158.879 35.4811C158.271 34.7771 156.639 33.4651 155.807 33.0491C159.327 28.0571 159.647 20.6971 159.647 15.6091V7.73714H161.919H163.423ZM178.655 13.7211H163.423V10.9691H178.655V13.7211ZM173.919 30.1051H168.351V27.2571H173.919V30.1051Z" fill="#494949"/>
<path fill-rule="evenodd" clip-rule="evenodd" d="M86.96 12.457H99.024V6.24902H103.12V12.457H115.28V16.361H105.398C107.943 21.1753 112.04 25.6185 116.656 28.009C115.696 28.809 114.32 30.409 113.68 31.497C111.782 30.3325 110.015 28.8664 108.4 27.1735V30.889H103.12V36.297H99.024V30.889H93.552V27.4447C91.9925 29.0577 90.299 30.4597 88.496 31.593C87.856 30.633 86.576 29.161 85.712 28.393C90.2138 25.9225 94.2682 21.3328 96.7643 16.361H86.96V12.457ZM93.9875 26.985C95.8922 24.9339 97.5867 22.5659 99.024 19.9914V26.985H93.9875ZM108.222 26.985H103.12V19.9537C104.575 22.5361 106.287 24.9235 108.222 26.985ZM58 8.16902H80.336V35.881H76.208V33.833H61.968V35.913H58V8.16902ZM76.208 22.729V29.961H61.968V22.729H76.208ZM76.208 18.921H61.968V12.041H76.208V18.921Z" fill="#107CC0"/>
<path fill-rule="evenodd" clip-rule="evenodd" d="M36.8648 0.56543C40.4584 0.56543 43.7422 2.05236 46.1587 4.40635C48.5131 6.76038 50 10.0433 50 13.6985C50 19.9554 48.1412 24.6634 44.052 29.0615C40.1487 33.2743 34.0768 37.1766 25.5887 41.8851C25.155 42.1327 24.6593 42.0708 24.2875 41.8228C16.6667 37.239 10.7187 33.3361 6.56752 29.1233C2.29231 24.7252 0 20.0173 0 13.6985C0 10.0433 1.48703 6.76038 3.84126 4.40635C6.19567 2.05236 9.47949 0.56543 13.135 0.56543C18.8971 0.56543 22.119 3.0432 24.969 8.06119C26.2082 5.95471 27.5093 4.2821 28.9963 3.0432C31.1029 1.37046 33.5811 0.56543 36.8648 0.56543ZM25.031 39.2831C32.9616 34.8845 38.5379 31.2298 42.1933 27.3269C45.7868 23.4246 47.4598 19.2735 47.4598 13.6985C47.4598 10.787 46.2205 8.12301 44.3618 6.20273C42.4412 4.2821 39.7771 3.10502 36.8648 3.10502C34.2007 3.10502 32.218 3.72496 30.6072 5.02582C28.9343 6.38845 27.5093 8.49494 26.1462 11.2827C26.0224 11.5302 25.8364 11.7159 25.5887 11.8402C24.9071 12.1497 24.1636 11.9022 23.8538 11.2827C21.1276 5.83093 18.4635 3.10502 13.135 3.10502C10.2229 3.10502 7.5589 4.2821 5.63819 6.20273C3.71738 8.12301 2.54024 10.787 2.54024 13.6985C2.54024 19.2735 4.58484 23.4864 8.36419 27.3269C12.2057 31.2916 17.8439 34.947 25.031 39.2831ZM23.8554 18.1708V16.4745H26.7128V18.1708C26.7128 19.7398 27.9847 21.0117 29.5537 21.0117H31.25V23.8691H29.5537C27.9847 23.8691 26.7128 25.141 26.7128 26.71V28.4063H23.8554V26.71C23.8554 25.141 22.5835 23.8691 21.0145 23.8691H19.3182V21.0117H21.0145C22.5835 21.0117 23.8554 19.7398 23.8554 18.1708ZM28.9855 14.77C28.9855 14.4562 28.7311 14.2018 28.4173 14.2018H22.1509C21.8371 14.2018 21.5827 14.4562 21.5827 14.77V18.1708C21.5827 18.4846 21.3283 18.739 21.0145 18.739H17.6136C17.2998 18.739 17.0455 18.9934 17.0455 19.3072V25.5737C17.0455 25.8875 17.2998 26.1418 17.6136 26.1418H21.0145C21.3283 26.1418 21.5827 26.3962 21.5827 26.71V30.1109C21.5827 30.4247 21.8371 30.6791 22.1509 30.6791H28.4173C28.7311 30.6791 28.9855 30.4247 28.9855 30.1109V26.71C28.9855 26.3962 29.2399 26.1418 29.5537 26.1418H32.9545C33.2683 26.1418 33.5227 25.8875 33.5227 25.5737V19.3072C33.5227 18.9934 33.2683 18.739 32.9545 18.739H29.5537C29.2399 18.739 28.9855 18.4846 28.9855 18.1708V14.77Z" fill="#107CC0"/>
</svg>
